<svg width="52" height="18" viewBox="0 0 52 18" fill="none" xmlns="http://www.w3.org/2000/svg">
<path d="M25.936 4.6H27.352V11.728H30.688V13H25.936V4.6ZM31.1853 10.24C31.1853 9.672 31.3133 9.172 31.5693 8.74C31.8333 8.308 32.1893 7.972 32.6373 7.732C33.0853 7.484 33.5933 7.36 34.1613 7.36C34.7293 7.36 35.2333 7.484 35.6733 7.732C36.1213 7.972 36.4773 8.308 36.7413 8.74C37.0053 9.172 37.1373 9.672 37.1373 10.24C37.1373 10.8 37.0053 11.3 36.7413 11.74C36.4773 12.172 36.1213 12.512 35.6733 12.76C35.2333 13 34.7293 13.12 34.1613 13.12C33.5933 13.12 33.0853 13 32.6373 12.76C32.1893 12.512 31.8333 12.172 31.5693 11.74C31.3133 11.3 31.1853 10.8 31.1853 10.24ZM32.5173 10.24C32.5173 10.584 32.5893 10.888 32.7333 11.152C32.8773 11.408 33.0733 11.612 33.3213 11.764C33.5693 11.908 33.8493 11.98 34.1613 11.98C34.4653 11.98 34.7413 11.908 34.9893 11.764C35.2453 11.612 35.4453 11.408 35.5893 11.152C35.7333 10.888 35.8053 10.584 35.8053 10.24C35.8053 9.896 35.7333 9.592 35.5893 9.328C35.4453 9.064 35.2453 8.86 34.9893 8.716C34.7413 8.572 34.4653 8.5 34.1613 8.5C33.8493 8.5 33.5693 8.572 33.3213 8.716C33.0733 8.86 32.8773 9.064 32.7333 9.328C32.5893 9.592 32.5173 9.896 32.5173 10.24ZM38.0551 13.372H39.3391C39.3471 13.62 39.4151 13.844 39.5431 14.044C39.6791 14.244 39.8631 14.4 40.0951 14.512C40.3271 14.624 40.5951 14.68 40.8991 14.68C41.1711 14.68 41.4311 14.616 41.6791 14.488C41.9271 14.36 42.1271 14.164 42.2791 13.9C42.4391 13.636 42.5191 13.296 42.5191 12.88V7.48H43.7911V12.88C43.7911 13.544 43.6551 14.092 43.3831 14.524C43.1191 14.956 42.7711 15.276 42.3391 15.484C41.9071 15.7 41.4391 15.808 40.9351 15.808C40.3351 15.808 39.8231 15.704 39.3991 15.496C38.9751 15.296 38.6471 15.012 38.4151 14.644C38.1911 14.276 38.0711 13.852 38.0551 13.372ZM37.9471 10.216C37.9471 9.6 38.0711 9.084 38.3191 8.668C38.5671 8.244 38.8951 7.92 39.3031 7.696C39.7191 7.472 40.1631 7.36 40.6351 7.36C41.0991 7.36 41.5031 7.476 41.8471 7.708C42.1991 7.932 42.4751 8.256 42.6751 8.68C42.8831 9.104 42.9871 9.616 42.9871 10.216C42.9871 10.808 42.8831 11.316 42.6751 11.74C42.4751 12.164 42.1991 12.492 41.8471 12.724C41.5031 12.948 41.0991 13.06 40.6351 13.06C40.1631 13.06 39.7191 12.948 39.3031 12.724C38.8951 12.5 38.5671 12.176 38.3191 11.752C38.0711 11.328 37.9471 10.816 37.9471 10.216ZM39.2911 10.216C39.2911 10.584 39.3671 10.896 39.5191 11.152C39.6711 11.408 39.8711 11.604 40.1191 11.74C40.3751 11.868 40.6511 11.932 40.9471 11.932C41.1951 11.932 41.4391 11.868 41.6791 11.74C41.9271 11.612 42.1271 11.42 42.2791 11.164C42.4391 10.9 42.5191 10.584 42.5191 10.216C42.5191 9.928 42.4711 9.68 42.3751 9.472C42.2871 9.256 42.1671 9.076 42.0151 8.932C41.8631 8.78 41.6911 8.668 41.4991 8.596C41.3151 8.524 41.1311 8.488 40.9471 8.488C40.6511 8.488 40.3751 8.556 40.1191 8.692C39.8711 8.82 39.6711 9.012 39.5191 9.268C39.3671 9.524 39.2911 9.84 39.2911 10.216ZM44.9783 10.24C44.9783 9.672 45.1063 9.172 45.3623 8.74C45.6263 8.308 45.9823 7.972 46.4303 7.732C46.8783 7.484 47.3863 7.36 47.9543 7.36C48.5223 7.36 49.0263 7.484 49.4663 7.732C49.9143 7.972 50.2703 8.308 50.5343 8.74C50.7983 9.172 50.9303 9.672 50.9303 10.24C50.9303 10.8 50.7983 11.3 50.5343 11.74C50.2703 12.172 49.9143 12.512 49.4663 12.76C49.0263 13 48.5223 13.12 47.9543 13.12C47.3863 13.12 46.8783 13 46.4303 12.76C45.9823 12.512 45.6263 12.172 45.3623 11.74C45.1063 11.3 44.9783 10.8 44.9783 10.24ZM46.3103 10.24C46.3103 10.584 46.3823 10.888 46.5263 11.152C46.6703 11.408 46.8663 11.612 47.1143 11.764C47.3623 11.908 47.6423 11.98 47.9543 11.98C48.2583 11.98 48.5343 11.908 48.7823 11.764C49.0383 11.612 49.2383 11.408 49.3823 11.152C49.5263 10.888 49.5983 10.584 49.5983 10.24C49.5983 9.896 49.5263 9.592 49.3823 9.328C49.2383 9.064 49.0383 8.86 48.7823 8.716C48.5343 8.572 48.2583 8.5 47.9543 8.5C47.6423 8.5 47.3623 8.572 47.1143 8.716C46.8663 8.86 46.6703 9.064 46.5263 9.328C46.3823 9.592 46.3103 9.896 46.3103 10.24Z" fill="white"/>
<rect width="12" height="12" rx="4" fill="#C07FF2"/>
<rect x="7" y="6" width="12" height="12" rx="6" fill="#09AFF4"/>
</svg>
