<svg width="23" height="21" viewBox="0 0 23 21" fill="none" xmlns="http://www.w3.org/2000/svg">
<path fill-rule="evenodd" clip-rule="evenodd" d="M11.4795 18.6845C13.8672 18.6845 15.8896 17.8859 17.5467 16.2887C19.2039 14.6915 20.0324 12.7422 20.0324 10.4409C20.0324 8.13959 19.2039 6.19034 17.5467 4.59315C15.8896 2.99596 13.8672 2.19736 11.4795 2.19736C9.0918 2.19736 7.06939 2.99596 5.41226 4.59315C3.75513 6.19034 2.92656 8.13959 2.92656 10.4409C2.92656 12.7422 3.75513 14.6915 5.41226 16.2887C7.06939 17.8859 9.0918 18.6845 11.4795 18.6845ZM14.9186 9.59087C15.5497 9.98188 15.5497 10.9 14.9186 11.291L10.3334 14.132C9.66722 14.5447 8.8067 14.0656 8.8067 13.2819V7.59992C8.8067 6.81623 9.66722 6.3371 10.3334 6.74987L14.9186 9.59087Z" fill="#1C1B1F"/>
<path fill-rule="evenodd" clip-rule="evenodd" d="M7.30994 19.9339C8.6107 20.4749 10.0005 20.7454 11.4795 20.7454C12.9584 20.7454 14.3483 20.4749 15.649 19.9339C16.9498 19.3929 18.0813 18.6587 19.0435 17.7313C20.0057 16.8039 20.7674 15.7134 21.3287 14.4597C21.89 13.2059 22.1707 11.8664 22.1707 10.4409C22.1707 9.01547 21.89 7.67589 21.3287 6.42219C20.7674 5.16848 20.0057 4.07792 19.0435 3.15052C18.0813 2.22312 16.9498 1.48893 15.649 0.94795C14.3483 0.406966 12.9584 0.136475 11.4795 0.136475C10.0005 0.136475 8.6107 0.406966 7.30994 0.94795C6.00918 1.48893 4.8777 2.22312 3.91549 3.15052C2.95329 4.07792 2.19155 5.16848 1.63026 6.42219C1.06897 7.67589 0.78833 9.01547 0.78833 10.4409C0.78833 11.8664 1.06897 13.2059 1.63026 14.4597C2.19155 15.7134 2.95329 16.8039 3.91549 17.7313C4.8777 18.6587 6.00918 19.3929 7.30994 19.9339ZM17.5467 16.2887C15.8896 17.8859 13.8672 18.6845 11.4795 18.6845C9.0918 18.6845 7.06939 17.8859 5.41226 16.2887C3.75513 14.6915 2.92656 12.7422 2.92656 10.4409C2.92656 8.13959 3.75513 6.19034 5.41226 4.59315C7.06939 2.99596 9.0918 2.19736 11.4795 2.19736C13.8672 2.19736 15.8896 2.99596 17.5467 4.59315C19.2039 6.19034 20.0324 8.13959 20.0324 10.4409C20.0324 12.7422 19.2039 14.6915 17.5467 16.2887Z" fill="#1C1B1F"/>
<path d="M8.8067 13.2819C8.8067 14.0656 9.66722 14.5447 10.3334 14.132L14.9186 11.291C15.5497 10.9 15.5497 9.98188 14.9186 9.59087L10.3334 6.74987C9.66722 6.3371 8.8067 6.81623 8.8067 7.59992V13.2819Z" fill="white"/>
</svg>
